<svg version="1.1" id="Layer_1" xmlns="http://www.w3.org/2000/svg" xmlns:xlink="http://www.w3.org/1999/xlink" x="0px" y="0px"
	 width="100%" viewBox="0 0 1280 2228" enable-background="new 0 0 1280 2228" xml:space="preserve">
<path fill="#0A0A0A" opacity="1.000000" stroke="none" 
	d="
M551.000000,2229.000000 
	C367.333344,2229.000000 184.166672,2229.000000 1.000000,2229.000000 
	C1.000000,1486.333374 1.000000,743.666687 1.000000,1.000000 
	C427.666656,1.000000 854.333313,1.000000 1281.000000,1.000000 
	C1281.000000,743.666687 1281.000000,1486.333374 1281.000000,2229.000000 
	C1037.833374,2229.000000 794.666687,2229.000000 551.000000,2229.000000 
M608.023743,884.651733 
	C619.594482,907.543213 623.605591,931.793091 621.108093,957.225464 
	C618.801086,980.718201 612.519653,1003.192505 604.093262,1025.166870 
	C594.494324,1050.198853 582.732056,1074.087891 568.237305,1096.682983 
	C544.354187,1133.913208 514.915039,1166.357666 483.058350,1196.771362 
	C481.977386,1197.803345 480.762115,1198.694580 479.678101,1199.723633 
	C478.601532,1200.745605 477.611633,1201.858887 476.583740,1202.932129 
	C477.764587,1203.183105 478.407623,1202.998535 478.967834,1202.671875 
	C508.954132,1185.179443 536.910339,1164.892090 561.964966,1140.847290 
	C604.819092,1099.720215 639.024536,1052.630127 660.427551,996.746033 
	C667.666809,977.843994 672.998840,958.415894 675.371033,938.466797 
	C678.008911,916.283691 677.541443,894.070740 670.591309,872.279907 
	C662.394775,846.581238 646.999939,827.218079 623.144958,814.639282 
	C597.593140,801.165771 570.327087,799.749634 542.506714,803.952515 
	C520.560486,807.268005 499.724579,814.562439 479.522766,823.638123 
	C475.403503,825.488647 471.511200,827.844543 467.514282,829.967529 
	C469.831360,830.611877 471.691986,830.127197 473.583588,829.875183 
	C483.455780,828.560303 493.313080,826.491699 503.218353,826.214600 
	C518.929565,825.774963 534.259766,828.741028 549.128845,834.084351 
	C574.962830,843.368042 594.497131,859.906250 608.023743,884.651733 
M501.359009,957.502380 
	C501.359009,1007.112244 501.359009,1056.722168 501.359009,1106.955811 
	C515.901855,1106.955811 529.739929,1106.374878 543.499817,1107.161377 
	C552.570984,1107.679810 558.927979,1105.676147 563.205933,1097.107788 
	C566.859314,1089.790283 571.667786,1083.049683 576.590942,1075.035400 
	C562.594543,1075.035400 549.884033,1075.035400 536.861572,1075.035400 
	C536.861572,1036.508911 536.861572,998.603943 536.861572,960.243958 
	C542.475952,960.243958 547.794312,960.565674 553.057678,960.164978 
	C560.137268,959.625977 565.179932,962.747314 569.319458,967.985413 
	C574.255432,974.231384 579.095032,980.554443 584.084229,986.757446 
	C588.969971,992.831787 593.991150,998.797241 599.434692,1005.394409 
	C600.654114,1000.699585 601.727661,997.047913 602.540771,993.339172 
	C604.462708,984.572876 606.394897,975.803772 607.991455,966.975769 
	C608.296814,965.287537 607.544617,962.986084 606.490784,961.544922 
	C601.101196,954.174988 595.455811,946.991882 589.894165,939.747925 
	C583.893738,931.932739 576.240295,927.683594 566.108765,927.852539 
	C551.949402,928.088684 537.783142,927.916992 523.619873,927.918945 
	C516.484558,927.919922 509.349182,927.919067 501.353516,927.919067 
	C501.353516,937.733582 501.353516,947.115967 501.359009,957.502380 
M722.672729,1079.963867 
	C728.171631,1087.874634 733.830078,1095.681519 739.085510,1103.750854 
	C741.001038,1106.692017 743.228210,1107.638428 746.495544,1107.565430 
	C752.324036,1107.435181 758.174561,1107.280884 763.984497,1107.641357 
	C768.696960,1107.933716 769.930359,1106.148315 769.919739,1101.604126 
	C769.788879,1045.453491 769.836304,989.302490 769.822693,933.151550 
	C769.822327,931.551392 769.656616,929.951294 769.565674,928.309570 
	C757.697693,928.309570 746.304138,928.309570 734.093018,928.309570 
	C734.093018,963.794373 734.093018,998.880615 734.093018,1033.966919 
	C733.775391,1033.990845 733.457825,1034.014771 733.140198,1034.038818 
	C715.327942,1007.731995 697.515686,981.425232 679.075317,954.190735 
	C675.197266,968.781128 671.573730,982.055298 668.218140,995.396790 
	C667.666992,997.588257 667.421875,1000.645813 668.523193,1002.330505 
	C674.053650,1010.790894 680.133667,1018.889648 685.918030,1027.186890 
	C698.042480,1044.578979 710.102783,1062.015991 722.672729,1079.963867 
M709.994629,1263.440063 
	C709.994629,1271.080322 709.994629,1278.720703 709.994629,1287.701294 
	C708.377686,1285.675415 707.699036,1284.961914 707.175171,1284.148804 
	C696.242737,1267.178467 685.346436,1250.184814 674.373047,1233.241089 
	C673.528870,1231.937622 672.210266,1230.054443 671.037415,1229.998047 
	C664.469727,1229.682861 657.878967,1229.846436 651.333984,1229.846436 
	C651.333984,1261.360352 651.333984,1292.105469 651.333984,1323.013428 
	C657.625854,1323.013428 663.618652,1323.013428 670.121094,1323.013428 
	C670.121094,1303.007690 670.121094,1283.485962 670.121094,1263.964233 
	C670.583130,1263.678345 671.045105,1263.392456 671.507141,1263.106567 
	C671.943420,1263.965576 672.304749,1264.873291 672.827026,1265.676392 
	C683.129761,1281.515503 694.207458,1296.916504 703.457092,1313.347046 
	C708.254150,1321.868408 713.764771,1324.524658 722.776428,1323.637207 
	C729.356628,1322.989258 729.417480,1323.500854 729.417603,1317.054810 
	C729.418091,1289.744385 729.415771,1262.433960 729.397644,1235.123535 
	C729.396606,1233.518677 729.248413,1231.913696 729.162476,1230.184082 
	C722.575623,1230.184082 716.351257,1230.184082 709.969177,1230.184082 
	C709.969177,1241.183228 709.969177,1251.819824 709.994629,1263.440063 
M430.173798,1320.403442 
	C454.488892,1309.914795 464.690674,1286.522705 457.250183,1262.458008 
	C452.126190,1245.885376 439.944611,1234.608643 422.922729,1231.943237 
	C406.310333,1229.342041 389.205170,1229.888306 372.058960,1229.040039 
	C372.058960,1261.286987 372.058960,1292.314575 372.058960,1323.765137 
	C379.086853,1323.765137 385.718781,1323.863159 392.346802,1323.743896 
	C404.776489,1323.520142 417.351929,1324.961304 430.173798,1320.403442 
M757.511230,1229.900024 
	C752.730286,1229.900024 747.949280,1229.900024 743.230957,1229.900024 
	C743.230957,1261.457886 743.230957,1292.477661 743.230957,1323.772827 
	C759.474670,1323.772827 775.277405,1323.771606 791.080078,1323.773193 
	C806.348267,1323.774780 806.350525,1323.776367 807.772095,1308.337646 
	C807.798035,1308.056274 807.553467,1307.749878 807.266296,1307.034546 
	C805.794128,1307.034546 804.159424,1307.034424 802.524719,1307.034546 
	C790.533447,1307.034790 778.540588,1307.126465 766.552917,1306.918823 
	C765.070740,1306.893188 762.408569,1305.351929 762.345947,1304.380615 
	C761.955322,1298.320190 762.148804,1292.222168 762.148804,1285.601562 
	C774.732849,1285.601562 786.639282,1285.601562 798.603943,1285.601562 
	C799.125305,1279.832397 799.596863,1274.614258 800.096130,1269.090454 
	C798.577209,1269.019409 797.446716,1268.922119 796.316101,1268.920532 
	C786.489929,1268.906738 776.660583,1268.766602 766.839111,1268.980835 
	C763.052368,1269.063477 761.839844,1267.687012 762.040527,1264.050537 
	C762.278809,1259.733398 762.252441,1255.386108 762.053101,1251.065308 
	C761.898865,1247.722900 763.277161,1246.783203 766.464355,1246.852051 
	C774.621277,1247.028198 782.784546,1246.909790 790.945312,1246.910278 
	C806.495728,1246.911255 806.497864,1246.911499 807.713440,1231.201416 
	C807.735229,1230.919189 807.501953,1230.617188 807.222107,1229.900024 
	C791.089233,1229.900024 774.798584,1229.900024 757.511230,1229.900024 
M472.005798,1266.499023 
	C472.005798,1285.394775 472.005798,1304.290649 472.005798,1323.516357 
	C492.363892,1323.516357 511.832611,1323.555298 531.299927,1323.408447 
	C532.340515,1323.400635 533.988831,1322.008423 534.295654,1320.953003 
	C535.571716,1316.562622 536.441833,1312.054199 537.532715,1307.274414 
	C535.421448,1307.165894 534.105957,1307.041138 532.790405,1307.039551 
	C520.462952,1307.024292 508.135529,1307.029419 495.808075,1307.030884 
	C493.452698,1307.031128 490.998383,1307.361450 491.066071,1303.707642 
	C491.173645,1297.903442 491.094757,1292.095825 491.094757,1285.739014 
	C503.558960,1285.739014 515.636841,1285.739014 527.859863,1285.739014 
	C528.493225,1281.287109 528.909363,1277.326904 529.654175,1273.429565 
	C530.343811,1269.820923 529.080505,1268.765625 525.486511,1268.839233 
	C515.495544,1269.043823 505.495209,1269.015747 495.504974,1268.793335 
	C494.022461,1268.760376 491.363800,1267.253418 491.306366,1266.303955 
	C490.927094,1260.031738 491.110382,1253.725586 491.110382,1246.883301 
	C506.028259,1246.883301 520.435852,1246.883301 535.094543,1246.883301 
	C536.083740,1241.031494 536.988342,1235.680664 537.907166,1230.245483 
	C515.868652,1230.245483 494.139801,1230.245483 472.005951,1230.245483 
	C472.005951,1242.233765 472.005951,1253.866333 472.005798,1266.499023 
M651.896729,1026.246094 
	C641.055176,1050.622070 626.583679,1072.759644 610.235779,1093.734375 
	C606.818970,1098.118286 603.288818,1102.413818 599.424316,1107.231934 
	C606.506287,1108.169922 612.347046,1107.892700 617.377380,1103.353760 
	C626.367249,1095.241821 635.476624,1087.262573 644.512512,1079.201660 
	C646.460876,1077.463501 648.308777,1075.612671 650.560181,1073.474609 
	C651.724731,1074.866577 652.604126,1075.864014 653.425049,1076.907593 
	C660.388062,1085.759521 667.240662,1094.701904 674.381104,1103.408081 
	C675.799500,1105.137451 678.282532,1106.998291 680.320129,1107.051147 
	C693.056519,1107.382935 705.805847,1107.218872 719.749207,1107.218872 
	C697.696228,1077.899292 676.404480,1049.591797 654.914001,1021.020081 
	C653.747559,1023.042664 653.004028,1024.332031 651.896729,1026.246094 
M626.875916,1269.827881 
	C632.194519,1256.768677 637.513062,1243.709473 643.172668,1229.812988 
	C636.250488,1229.812988 630.295410,1229.652222 624.363525,1229.951782 
	C623.206116,1230.010132 621.617676,1231.646118 621.108337,1232.909546 
	C613.254761,1252.389526 605.563599,1271.934692 597.774048,1291.440430 
	C597.149902,1293.003296 596.079956,1294.388062 594.930725,1296.343018 
	C593.800720,1294.913086 592.993896,1294.261475 592.665588,1293.422607 
	C584.887878,1273.551392 577.197449,1253.645996 569.354736,1233.800537 
	C568.757019,1232.288086 567.212036,1230.127319 565.997986,1230.052856 
	C559.783875,1229.671997 553.533752,1229.876709 547.055725,1229.876709 
	C547.531433,1231.587891 547.708740,1232.569336 548.070618,1233.477173 
	C558.494141,1259.623779 569.433655,1285.580688 579.114746,1311.998779 
	C582.669678,1321.699707 587.719543,1325.496460 597.551697,1323.643433 
	C599.158752,1323.340454 600.960388,1323.943604 602.516846,1323.535645 
	C603.886536,1323.176636 605.716309,1322.266724 606.185669,1321.124512 
	C613.094177,1304.310303 619.808960,1287.416382 626.875916,1269.827881 
M866.146973,1301.500366 
	C866.150940,1285.006348 866.239014,1268.511597 866.093689,1252.018921 
	C866.061462,1248.361938 867.174561,1246.991821 870.935486,1247.102173 
	C878.723938,1247.330566 886.523865,1247.170898 894.470825,1247.170898 
	C894.470825,1241.289917 894.470825,1235.756714 894.470825,1230.069092 
	C869.002014,1230.069092 843.902100,1230.069092 818.433167,1230.069092 
	C818.433167,1235.829956 818.433167,1241.345337 818.433167,1247.382324 
	C827.895630,1247.382324 836.973877,1247.382324 846.484436,1247.382324 
	C846.620361,1250.331787 846.828979,1252.785522 846.831543,1255.239502 
	C846.853699,1276.398438 846.782104,1297.557739 846.945557,1318.715332 
	C846.958252,1320.355835 848.427795,1323.312378 849.414917,1323.397339 
	C854.803955,1323.861572 860.253906,1323.618408 866.146973,1323.618408 
	C866.146973,1316.100952 866.146973,1309.300537 866.146973,1301.500366 
M807.372803,1385.211426 
	C807.350586,1374.382812 807.251953,1363.553589 807.355957,1352.726196 
	C807.384521,1349.751221 806.447815,1348.719604 803.374451,1348.568970 
	C799.045105,1348.357178 796.941956,1349.303101 797.324097,1354.257568 
	C797.772034,1360.064453 797.428833,1365.932495 797.428833,1371.773926 
	C795.229858,1370.850952 794.257080,1369.776733 793.467468,1368.581543 
	C789.713318,1362.898560 785.864563,1357.270264 782.336548,1351.448486 
	C779.903625,1347.433838 776.199707,1348.500244 773.001831,1349.078003 
	C771.984558,1349.261841 770.937256,1352.517212 770.905457,1354.384155 
	C770.718384,1365.370117 770.932495,1376.362793 770.768005,1387.349487 
	C770.722900,1390.368896 771.548889,1391.768555 774.654236,1391.465820 
	C776.257812,1391.309448 777.870117,1391.242310 779.863403,1391.109253 
	C779.863403,1386.839600 779.863403,1383.030762 779.863403,1379.221924 
	C779.863403,1375.522095 779.863403,1371.822144 779.863403,1368.122314 
	C780.377258,1368.001953 780.891052,1367.881714 781.404907,1367.761353 
	C785.384827,1373.786377 789.396729,1379.790771 793.336121,1385.842163 
	C797.455688,1392.170288 799.036255,1392.747925 807.173035,1390.438477 
	C807.238342,1389.065796 807.308228,1387.594971 807.372803,1385.211426 
M707.104187,1379.353760 
	C710.644958,1387.655640 716.972595,1392.069824 725.941895,1392.356567 
	C734.411438,1392.627075 741.292542,1389.285034 745.495239,1381.802368 
	C750.113159,1373.580322 749.932800,1365.098389 744.463257,1357.351807 
	C737.932190,1348.101929 725.902771,1345.601807 716.094177,1350.917358 
	C706.716919,1355.999390 702.881287,1367.628296 707.104187,1379.353760 
M469.030914,1392.318726 
	C470.008270,1392.117432 470.991791,1391.941895 471.962006,1391.710449 
	C480.713959,1389.622070 487.572174,1381.834839 488.356323,1373.108765 
	C489.272003,1362.918701 484.242584,1354.092529 475.193512,1350.009277 
	C467.435303,1346.508545 456.523499,1348.632935 450.702240,1354.777344 
	C445.262115,1360.519409 443.434906,1372.408447 447.141968,1380.176025 
	C451.326233,1388.943481 458.612152,1392.721313 469.030914,1392.318726 
M559.660645,1364.496338 
	C559.665466,1367.992065 559.268188,1371.548584 559.786438,1374.966553 
	C560.321106,1378.492310 561.114868,1382.262695 562.912964,1385.254517 
	C566.750671,1391.640137 574.890381,1393.799805 583.319275,1391.453125 
	C590.426819,1389.474243 595.038147,1383.698486 595.230896,1376.003296 
	C595.418335,1368.517212 595.122986,1361.018311 595.348083,1353.534302 
	C595.456238,1349.936768 594.492065,1348.502686 590.620300,1348.560669 
	C586.873657,1348.617065 585.656006,1349.935913 585.702942,1353.559082 
	C585.797729,1360.875488 585.871887,1368.217407 585.365479,1375.507935 
	C584.967590,1381.237061 582.020447,1383.549194 577.039429,1383.232056 
	C572.194153,1382.923584 569.667480,1380.095703 569.576965,1374.517944 
	C569.466248,1367.694702 569.434570,1360.866577 569.570984,1354.044678 
	C569.639221,1350.631592 569.371704,1348.455688 564.869568,1348.522095 
	C560.637634,1348.584473 559.241272,1349.948975 559.602173,1354.020142 
	C559.880310,1357.158325 559.659180,1360.340820 559.660645,1364.496338 
M833.922546,1381.350586 
	C831.800415,1382.927612 829.678284,1384.504761 826.880127,1386.584229 
	C835.756165,1392.419922 843.745361,1394.115967 852.283264,1390.710205 
	C861.446777,1387.054932 863.087646,1375.824707 855.285034,1369.804077 
	C852.749817,1367.847900 849.373657,1366.956909 846.338379,1365.683105 
	C844.664429,1364.980713 842.609802,1364.862549 841.262085,1363.801270 
	C840.052917,1362.848999 839.020386,1360.972656 839.003967,1359.491821 
	C838.995422,1358.715332 841.346191,1357.233765 842.611816,1357.254761 
	C845.873840,1357.308960 849.256775,1357.608398 852.342712,1358.591064 
	C855.359680,1359.551636 856.630310,1358.567505 857.677673,1356.018188 
	C858.673889,1353.593628 858.514526,1351.515381 855.686157,1351.008179 
	C850.364868,1350.053467 844.941895,1348.728882 839.621399,1348.957642 
	C833.798279,1349.208008 829.586670,1354.844604 829.380676,1360.688110 
	C829.177551,1366.450806 831.790955,1369.704468 838.117615,1371.683472 
	C840.497253,1372.427856 842.788757,1373.509521 845.206055,1374.064331 
	C848.358521,1374.787842 851.143982,1376.410889 849.872375,1379.645508 
	C849.085083,1381.648071 845.893005,1383.723633 843.647278,1383.882324 
	C840.693359,1384.091309 837.608398,1382.447998 833.922546,1381.350586 
M419.026886,1389.613525 
	C427.752289,1381.437622 426.260773,1372.114990 415.308716,1367.261597 
	C412.157898,1365.865234 408.606628,1365.343140 405.524261,1363.836426 
	C404.255280,1363.216064 403.152863,1361.068970 403.118774,1359.589966 
	C403.100677,1358.807373 405.554260,1357.260010 406.861420,1357.292236 
	C410.273468,1357.376831 413.804199,1357.722412 417.028656,1358.764893 
	C419.714355,1359.633179 420.772919,1358.741943 421.521515,1356.595337 
	C422.203796,1354.638916 423.383545,1352.860229 420.426147,1351.183960 
	C414.968689,1348.090698 409.187103,1347.994751 403.489624,1349.066406 
	C397.331726,1350.224731 393.540161,1355.461304 393.596832,1361.179199 
	C393.647644,1366.301392 396.919739,1369.918335 403.051697,1371.749023 
	C405.118500,1372.366211 407.100281,1373.285767 409.183289,1373.827393 
	C412.330475,1374.645630 415.282410,1375.977295 414.485291,1379.716064 
	C413.643829,1383.662720 410.157562,1384.672363 406.617920,1384.008545 
	C403.241913,1383.375488 399.997833,1382.039185 396.103729,1380.827881 
	C394.928711,1382.780273 393.649078,1384.906494 392.185150,1387.338989 
	C401.060822,1392.394287 409.452362,1394.115234 419.026886,1389.613525 
M629.375061,1372.566162 
	C629.167542,1377.366943 629.049072,1382.173706 628.725037,1386.966675 
	C628.450867,1391.022339 630.756531,1391.443726 634.031982,1391.544556 
	C637.493896,1391.651123 638.720825,1390.526123 638.637634,1387.004150 
	C638.437683,1378.536621 638.663818,1370.059814 638.534607,1361.589600 
	C638.486267,1358.419189 639.552124,1356.982666 642.851074,1357.207275 
	C645.581604,1357.393188 648.334778,1357.245239 651.499573,1357.245239 
	C651.345337,1353.994385 651.230957,1351.584473 651.095215,1348.723145 
	C640.068359,1348.723145 629.470825,1348.566406 618.893616,1348.957275 
	C617.793457,1348.997803 616.351990,1352.201294 615.995178,1354.110352 
	C615.843628,1354.921143 617.986755,1356.953613 619.250000,1357.109497 
	C628.506897,1358.251099 628.524048,1358.145142 629.189758,1367.696167 
	C629.282043,1369.020264 629.310425,1370.348755 629.375061,1372.566162 
M520.535095,1370.490234 
	C520.533203,1364.504395 520.387390,1358.513916 520.582581,1352.534424 
	C520.702942,1348.846802 518.662781,1348.601929 515.841125,1348.623169 
	C513.037659,1348.644043 511.057526,1348.889648 511.107269,1352.566528 
	C511.264709,1364.203491 511.220306,1375.844360 511.132263,1387.482788 
	C511.111267,1390.260742 512.250122,1391.457886 514.935303,1391.452515 
	C521.752441,1391.438965 528.578613,1391.633667 535.378601,1391.293823 
	C536.681458,1391.228638 538.671753,1389.279663 538.987610,1387.891235 
	C540.170288,1382.692627 536.455872,1383.001953 532.956177,1383.012939 
	C520.586182,1383.051636 520.586060,1383.007446 520.535095,1370.490234 
M673.658875,1390.851318 
	C681.640625,1392.449829 682.058105,1392.129150 682.049377,1384.530151 
	C682.038269,1374.895020 682.045654,1365.259766 682.038208,1355.624634 
	C682.032227,1347.934082 681.080383,1347.274658 673.166626,1349.547974 
	C673.166626,1363.091553 673.166626,1376.665771 673.658875,1390.851318 
M474.532135,1204.537109 
	C474.532135,1204.537109 474.498444,1204.552002 474.532135,1204.537109 
z"/>
<path fill="#F97004" opacity="1.000000" stroke="none" 
	d="
M607.802246,884.350220 
	C594.497131,859.906250 574.962830,843.368042 549.128845,834.084351 
	C534.259766,828.741028 518.929565,825.774963 503.218353,826.214600 
	C493.313080,826.491699 483.455780,828.560303 473.583588,829.875183 
	C471.691986,830.127197 469.831360,830.611877 467.514282,829.967529 
	C471.511200,827.844543 475.403503,825.488647 479.522766,823.638123 
	C499.724579,814.562439 520.560486,807.268005 542.506714,803.952515 
	C570.327087,799.749634 597.593140,801.165771 623.144958,814.639282 
	C646.999939,827.218079 662.394775,846.581238 670.591309,872.279907 
	C677.541443,894.070740 678.008911,916.283691 675.371033,938.466797 
	C672.998840,958.415894 667.666809,977.843994 660.427551,996.746033 
	C639.024536,1052.630127 604.819092,1099.720215 561.964966,1140.847290 
	C536.910339,1164.892090 508.954132,1185.179443 478.967834,1202.671875 
	C478.407623,1202.998535 477.764587,1203.183105 476.583740,1202.932129 
	C477.611633,1201.858887 478.601532,1200.745605 479.678101,1199.723633 
	C480.762115,1198.694580 481.977386,1197.803345 483.058350,1196.771362 
	C514.915039,1166.357666 544.354187,1133.913208 568.237305,1096.682983 
	C582.732056,1074.087891 594.494324,1050.198853 604.093262,1025.166870 
	C612.519653,1003.192505 618.801086,980.718201 621.108093,957.225464 
	C623.605591,931.793091 619.594482,907.543213 607.802246,884.350220 
z"/>
<path fill="#F9F9F9" opacity="1.000000" stroke="none" 
	d="
M501.356262,957.000366 
	C501.353516,947.115967 501.353516,937.733582 501.353516,927.919067 
	C509.349182,927.919067 516.484558,927.919922 523.619873,927.918945 
	C537.783142,927.916992 551.949402,928.088684 566.108765,927.852539 
	C576.240295,927.683594 583.893738,931.932739 589.894165,939.747925 
	C595.455811,946.991882 601.101196,954.174988 606.490784,961.544922 
	C607.544617,962.986084 608.296814,965.287537 607.991455,966.975769 
	C606.394897,975.803772 604.462708,984.572876 602.540771,993.339172 
	C601.727661,997.047913 600.654114,1000.699585 599.434692,1005.394409 
	C593.991150,998.797241 588.969971,992.831787 584.084229,986.757446 
	C579.095032,980.554443 574.255432,974.231384 569.319458,967.985413 
	C565.179932,962.747314 560.137268,959.625977 553.057678,960.164978 
	C547.794312,960.565674 542.475952,960.243958 536.861572,960.243958 
	C536.861572,998.603943 536.861572,1036.508911 536.861572,1075.035400 
	C549.884033,1075.035400 562.594543,1075.035400 576.590942,1075.035400 
	C571.667786,1083.049683 566.859314,1089.790283 563.205933,1097.107788 
	C558.927979,1105.676147 552.570984,1107.679810 543.499817,1107.161377 
	C529.739929,1106.374878 515.901855,1106.955811 501.359009,1106.955811 
	C501.359009,1056.722168 501.359009,1007.112244 501.356262,957.000366 
z"/>
<path fill="#F9F9F9" opacity="1.000000" stroke="none" 
	d="
M722.431091,1079.699219 
	C710.102783,1062.015991 698.042480,1044.578979 685.918030,1027.186890 
	C680.133667,1018.889648 674.053650,1010.790894 668.523193,1002.330505 
	C667.421875,1000.645813 667.666992,997.588257 668.218140,995.396790 
	C671.573730,982.055298 675.197266,968.781128 679.075317,954.190735 
	C697.515686,981.425232 715.327942,1007.731995 733.140198,1034.038818 
	C733.457825,1034.014771 733.775391,1033.990845 734.093018,1033.966919 
	C734.093018,998.880615 734.093018,963.794373 734.093018,928.309570 
	C746.304138,928.309570 757.697693,928.309570 769.565674,928.309570 
	C769.656616,929.951294 769.822327,931.551392 769.822693,933.151550 
	C769.836304,989.302490 769.788879,1045.453491 769.919739,1101.604126 
	C769.930359,1106.148315 768.696960,1107.933716 763.984497,1107.641357 
	C758.174561,1107.280884 752.324036,1107.435181 746.495544,1107.565430 
	C743.228210,1107.638428 741.001038,1106.692017 739.085510,1103.750854 
	C733.830078,1095.681519 728.171631,1087.874634 722.431091,1079.699219 
z"/>
<path fill="#F8F8F8" opacity="1.000000" stroke="none" 
	d="
M709.981934,1262.948242 
	C709.969177,1251.819824 709.969177,1241.183228 709.969177,1230.184082 
	C716.351257,1230.184082 722.575623,1230.184082 729.162476,1230.184082 
	C729.248413,1231.913696 729.396606,1233.518677 729.397644,1235.123535 
	C729.415771,1262.433960 729.418091,1289.744385 729.417603,1317.054810 
	C729.417480,1323.500854 729.356628,1322.989258 722.776428,1323.637207 
	C713.764771,1324.524658 708.254150,1321.868408 703.457092,1313.347046 
	C694.207458,1296.916504 683.129761,1281.515503 672.827026,1265.676392 
	C672.304749,1264.873291 671.943420,1263.965576 671.507141,1263.106567 
	C671.045105,1263.392456 670.583130,1263.678345 670.121094,1263.964233 
	C670.121094,1283.485962 670.121094,1303.007690 670.121094,1323.013428 
	C663.618652,1323.013428 657.625854,1323.013428 651.333984,1323.013428 
	C651.333984,1292.105469 651.333984,1261.360352 651.333984,1229.846436 
	C657.878967,1229.846436 664.469727,1229.682861 671.037415,1229.998047 
	C672.210266,1230.054443 673.528870,1231.937622 674.373047,1233.241089 
	C685.346436,1250.184814 696.242737,1267.178467 707.175171,1284.148804 
	C707.699036,1284.961914 708.377686,1285.675415 709.994629,1287.701294 
	C709.994629,1278.720703 709.994629,1271.080322 709.981934,1262.948242 
z"/>
<path fill="#F7F7F7" opacity="1.000000" stroke="none" 
	d="
M429.812988,1320.550049 
	C417.351929,1324.961304 404.776489,1323.520142 392.346802,1323.743896 
	C385.718781,1323.863159 379.086853,1323.765137 372.058960,1323.765137 
	C372.058960,1292.314575 372.058960,1261.286987 372.058960,1229.040039 
	C389.205170,1229.888306 406.310333,1229.342041 422.922729,1231.943237 
	C439.944611,1234.608643 452.126190,1245.885376 457.250183,1262.458008 
	C464.690674,1286.522705 454.488892,1309.914795 429.812988,1320.550049 
M429.839111,1299.375244 
	C448.710724,1282.324341 439.689789,1257.076660 421.862366,1250.429443 
	C414.214020,1247.577637 405.280487,1248.234131 396.955963,1247.110840 
	C391.988037,1246.440552 390.771912,1248.610596 390.831818,1253.244019 
	C391.042938,1269.571899 390.898651,1285.904175 390.914001,1302.234863 
	C390.915497,1303.828003 391.087952,1305.420776 391.199036,1307.320923 
	C396.942780,1307.320923 402.110565,1307.079712 407.247467,1307.375610 
	C415.685638,1307.861694 422.891296,1305.134644 429.839111,1299.375244 
z"/>
<path fill="#F7F7F7" opacity="1.000000" stroke="none" 
	d="
M758.009521,1229.900024 
	C774.798584,1229.900024 791.089233,1229.900024 807.222107,1229.900024 
	C807.501953,1230.617188 807.735229,1230.919189 807.713440,1231.201416 
	C806.497864,1246.911499 806.495728,1246.911255 790.945312,1246.910278 
	C782.784546,1246.909790 774.621277,1247.028198 766.464355,1246.852051 
	C763.277161,1246.783203 761.898865,1247.722900 762.053101,1251.065308 
	C762.252441,1255.386108 762.278809,1259.733398 762.040527,1264.050537 
	C761.839844,1267.687012 763.052368,1269.063477 766.839111,1268.980835 
	C776.660583,1268.766602 786.489929,1268.906738 796.316101,1268.920532 
	C797.446716,1268.922119 798.577209,1269.019409 800.096130,1269.090454 
	C799.596863,1274.614258 799.125305,1279.832397 798.603943,1285.601562 
	C786.639282,1285.601562 774.732849,1285.601562 762.148804,1285.601562 
	C762.148804,1292.222168 761.955322,1298.320190 762.345947,1304.380615 
	C762.408569,1305.351929 765.070740,1306.893188 766.552917,1306.918823 
	C778.540588,1307.126465 790.533447,1307.034790 802.524719,1307.034546 
	C804.159424,1307.034424 805.794128,1307.034546 807.266296,1307.034546 
	C807.553467,1307.749878 807.798035,1308.056274 807.772095,1308.337646 
	C806.350525,1323.776367 806.348267,1323.774780 791.080078,1323.773193 
	C775.277405,1323.771606 759.474670,1323.772827 743.230957,1323.772827 
	C743.230957,1292.477661 743.230957,1261.457886 743.230957,1229.900024 
	C747.949280,1229.900024 752.730286,1229.900024 758.009521,1229.900024 
z"/>
<path fill="#F7F7F7" opacity="1.000000" stroke="none" 
	d="
M472.005859,1265.999023 
	C472.005951,1253.866333 472.005951,1242.233765 472.005951,1230.245483 
	C494.139801,1230.245483 515.868652,1230.245483 537.907166,1230.245483 
	C536.988342,1235.680664 536.083740,1241.031494 535.094543,1246.883301 
	C520.435852,1246.883301 506.028259,1246.883301 491.110382,1246.883301 
	C491.110382,1253.725586 490.927094,1260.031738 491.306366,1266.303955 
	C491.363800,1267.253418 494.022461,1268.760376 495.504974,1268.793335 
	C505.495209,1269.015747 515.495544,1269.043823 525.486511,1268.839233 
	C529.080505,1268.765625 530.343811,1269.820923 529.654175,1273.429565 
	C528.909363,1277.326904 528.493225,1281.287109 527.859863,1285.739014 
	C515.636841,1285.739014 503.558960,1285.739014 491.094757,1285.739014 
	C491.094757,1292.095825 491.173645,1297.903442 491.066071,1303.707642 
	C490.998383,1307.361450 493.452698,1307.031128 495.808075,1307.030884 
	C508.135529,1307.029419 520.462952,1307.024292 532.790405,1307.039551 
	C534.105957,1307.041138 535.421448,1307.165894 537.532715,1307.274414 
	C536.441833,1312.054199 535.571716,1316.562622 534.295654,1320.953003 
	C533.988831,1322.008423 532.340515,1323.400635 531.299927,1323.408447 
	C511.832611,1323.555298 492.363892,1323.516357 472.005798,1323.516357 
	C472.005798,1304.290649 472.005798,1285.394775 472.005859,1265.999023 
z"/>
<path fill="#F8F8F8" opacity="1.000000" stroke="none" 
	d="
M652.078613,1025.933716 
	C653.004028,1024.332031 653.747559,1023.042664 654.914001,1021.020081 
	C676.404480,1049.591797 697.696228,1077.899292 719.749207,1107.218872 
	C705.805847,1107.218872 693.056519,1107.382935 680.320129,1107.051147 
	C678.282532,1106.998291 675.799500,1105.137451 674.381104,1103.408081 
	C667.240662,1094.701904 660.388062,1085.759521 653.425049,1076.907593 
	C652.604126,1075.864014 651.724731,1074.866577 650.560181,1073.474609 
	C648.308777,1075.612671 646.460876,1077.463501 644.512512,1079.201660 
	C635.476624,1087.262573 626.367249,1095.241821 617.377380,1103.353760 
	C612.347046,1107.892700 606.506287,1108.169922 599.424316,1107.231934 
	C603.288818,1102.413818 606.818970,1098.118286 610.235779,1093.734375 
	C626.583679,1072.759644 641.055176,1050.622070 652.078613,1025.933716 
z"/>
<path fill="#F7F7F7" opacity="1.000000" stroke="none" 
	d="
M626.722839,1270.184692 
	C619.808960,1287.416382 613.094177,1304.310303 606.185669,1321.124512 
	C605.716309,1322.266724 603.886536,1323.176636 602.516846,1323.535645 
	C600.960388,1323.943604 599.158752,1323.340454 597.551697,1323.643433 
	C587.719543,1325.496460 582.669678,1321.699707 579.114746,1311.998779 
	C569.433655,1285.580688 558.494141,1259.623779 548.070618,1233.477173 
	C547.708740,1232.569336 547.531433,1231.587891 547.055725,1229.876709 
	C553.533752,1229.876709 559.783875,1229.671997 565.997986,1230.052856 
	C567.212036,1230.127319 568.757019,1232.288086 569.354736,1233.800537 
	C577.197449,1253.645996 584.887878,1273.551392 592.665588,1293.422607 
	C592.993896,1294.261475 593.800720,1294.913086 594.930725,1296.343018 
	C596.079956,1294.388062 597.149902,1293.003296 597.774048,1291.440430 
	C605.563599,1271.934692 613.254761,1252.389526 621.108337,1232.909546 
	C621.617676,1231.646118 623.206116,1230.010132 624.363525,1229.951782 
	C630.295410,1229.652222 636.250488,1229.812988 643.172668,1229.812988 
	C637.513062,1243.709473 632.194519,1256.768677 626.722839,1270.184692 
z"/>
<path fill="#F8F8F8" opacity="1.000000" stroke="none" 
	d="
M866.146973,1302.000244 
	C866.146973,1309.300537 866.146973,1316.100952 866.146973,1323.618408 
	C860.253906,1323.618408 854.803955,1323.861572 849.414917,1323.397339 
	C848.427795,1323.312378 846.958252,1320.355835 846.945557,1318.715332 
	C846.782104,1297.557739 846.853699,1276.398438 846.831543,1255.239502 
	C846.828979,1252.785522 846.620361,1250.331787 846.484436,1247.382324 
	C836.973877,1247.382324 827.895630,1247.382324 818.433167,1247.382324 
	C818.433167,1241.345337 818.433167,1235.829956 818.433167,1230.069092 
	C843.902100,1230.069092 869.002014,1230.069092 894.470825,1230.069092 
	C894.470825,1235.756714 894.470825,1241.289917 894.470825,1247.170898 
	C886.523865,1247.170898 878.723938,1247.330566 870.935486,1247.102173 
	C867.174561,1246.991821 866.061462,1248.361938 866.093689,1252.018921 
	C866.239014,1268.511597 866.150940,1285.006348 866.146973,1302.000244 
z"/>
<path fill="#E76D0A" opacity="1.000000" stroke="none" 
	d="
M807.375488,1385.667725 
	C807.308228,1387.594971 807.238342,1389.065796 807.173035,1390.438477 
	C799.036255,1392.747925 797.455688,1392.170288 793.336121,1385.842163 
	C789.396729,1379.790771 785.384827,1373.786377 781.404907,1367.761353 
	C780.891052,1367.881714 780.377258,1368.001953 779.863403,1368.122314 
	C779.863403,1371.822144 779.863403,1375.522095 779.863403,1379.221924 
	C779.863403,1383.030762 779.863403,1386.839600 779.863403,1391.109253 
	C777.870117,1391.242310 776.257812,1391.309448 774.654236,1391.465820 
	C771.548889,1391.768555 770.722900,1390.368896 770.768005,1387.349487 
	C770.932495,1376.362793 770.718384,1365.370117 770.905457,1354.384155 
	C770.937256,1352.517212 771.984558,1349.261841 773.001831,1349.078003 
	C776.199707,1348.500244 779.903625,1347.433838 782.336548,1351.448486 
	C785.864563,1357.270264 789.713318,1362.898560 793.467468,1368.581543 
	C794.257080,1369.776733 795.229858,1370.850952 797.428833,1371.773926 
	C797.428833,1365.932495 797.772034,1360.064453 797.324097,1354.257568 
	C796.941956,1349.303101 799.045105,1348.357178 803.374451,1348.568970 
	C806.447815,1348.719604 807.384521,1349.751221 807.355957,1352.726196 
	C807.251953,1363.553589 807.350586,1374.382812 807.375488,1385.667725 
z"/>
<path fill="#E76D0A" opacity="1.000000" stroke="none" 
	d="
M707.036987,1378.967651 
	C702.881287,1367.628296 706.716919,1355.999390 716.094177,1350.917358 
	C725.902771,1345.601807 737.932190,1348.101929 744.463257,1357.351807 
	C749.932800,1365.098389 750.113159,1373.580322 745.495239,1381.802368 
	C741.292542,1389.285034 734.411438,1392.627075 725.941895,1392.356567 
	C716.972595,1392.069824 710.644958,1387.655640 707.036987,1378.967651 
M734.273010,1380.983276 
	C737.897522,1377.458130 738.993591,1373.027588 738.612976,1368.189819 
	C737.928772,1359.491943 728.531494,1353.906738 721.657654,1358.026978 
	C715.580505,1361.669434 713.138977,1370.643433 716.497314,1376.993896 
	C719.805725,1383.249878 726.227844,1384.937622 734.273010,1380.983276 
z"/>
<path fill="#E76D0A" opacity="1.000000" stroke="none" 
	d="
M468.611115,1392.333740 
	C458.612152,1392.721313 451.326233,1388.943481 447.141968,1380.176025 
	C443.434906,1372.408447 445.262115,1360.519409 450.702240,1354.777344 
	C456.523499,1348.632935 467.435303,1346.508545 475.193512,1350.009277 
	C484.242584,1354.092529 489.272003,1362.918701 488.356323,1373.108765 
	C487.572174,1381.834839 480.713959,1389.622070 471.962006,1391.710449 
	C470.991791,1391.941895 470.008270,1392.117432 468.611115,1392.333740 
M478.148804,1371.344482 
	C478.115662,1362.710815 474.605530,1357.485474 468.542206,1357.043457 
	C459.946869,1356.417114 454.756165,1361.882935 455.015686,1371.286865 
	C455.211212,1378.370483 459.505371,1382.914551 466.275696,1383.202148 
	C473.471222,1383.507812 477.438049,1379.822388 478.148804,1371.344482 
z"/>
<path fill="#E76D0A" opacity="1.000000" stroke="none" 
	d="
M559.660339,1364.000000 
	C559.659180,1360.340820 559.880310,1357.158325 559.602173,1354.020142 
	C559.241272,1349.948975 560.637634,1348.584473 564.869568,1348.522095 
	C569.371704,1348.455688 569.639221,1350.631592 569.570984,1354.044678 
	C569.434570,1360.866577 569.466248,1367.694702 569.576965,1374.517944 
	C569.667480,1380.095703 572.194153,1382.923584 577.039429,1383.232056 
	C582.020447,1383.549194 584.967590,1381.237061 585.365479,1375.507935 
	C585.871887,1368.217407 585.797729,1360.875488 585.702942,1353.559082 
	C585.656006,1349.935913 586.873657,1348.617065 590.620300,1348.560669 
	C594.492065,1348.502686 595.456238,1349.936768 595.348083,1353.534302 
	C595.122986,1361.018311 595.418335,1368.517212 595.230896,1376.003296 
	C595.038147,1383.698486 590.426819,1389.474243 583.319275,1391.453125 
	C574.890381,1393.799805 566.750671,1391.640137 562.912964,1385.254517 
	C561.114868,1382.262695 560.321106,1378.492310 559.786438,1374.966553 
	C559.268188,1371.548584 559.665466,1367.992065 559.660339,1364.000000 
z"/>
<path fill="#E76D0A" opacity="1.000000" stroke="none" 
	d="
M834.251160,1381.475830 
	C837.608398,1382.447998 840.693359,1384.091309 843.647278,1383.882324 
	C845.893005,1383.723633 849.085083,1381.648071 849.872375,1379.645508 
	C851.143982,1376.410889 848.358521,1374.787842 845.206055,1374.064331 
	C842.788757,1373.509521 840.497253,1372.427856 838.117615,1371.683472 
	C831.790955,1369.704468 829.177551,1366.450806 829.380676,1360.688110 
	C829.586670,1354.844604 833.798279,1349.208008 839.621399,1348.957642 
	C844.941895,1348.728882 850.364868,1350.053467 855.686157,1351.008179 
	C858.514526,1351.515381 858.673889,1353.593628 857.677673,1356.018188 
	C856.630310,1358.567505 855.359680,1359.551636 852.342712,1358.591064 
	C849.256775,1357.608398 845.873840,1357.308960 842.611816,1357.254761 
	C841.346191,1357.233765 838.995422,1358.715332 839.003967,1359.491821 
	C839.020386,1360.972656 840.052917,1362.848999 841.262085,1363.801270 
	C842.609802,1364.862549 844.664429,1364.980713 846.338379,1365.683105 
	C849.373657,1366.956909 852.749817,1367.847900 855.285034,1369.804077 
	C863.087646,1375.824707 861.446777,1387.054932 852.283264,1390.710205 
	C843.745361,1394.115967 835.756165,1392.419922 826.880127,1386.584229 
	C829.678284,1384.504761 831.800415,1382.927612 834.251160,1381.475830 
z"/>
<path fill="#E76D0A" opacity="1.000000" stroke="none" 
	d="
M418.736176,1389.838501 
	C409.452362,1394.115234 401.060822,1392.394287 392.185150,1387.338989 
	C393.649078,1384.906494 394.928711,1382.780273 396.103729,1380.827881 
	C399.997833,1382.039185 403.241913,1383.375488 406.617920,1384.008545 
	C410.157562,1384.672363 413.643829,1383.662720 414.485291,1379.716064 
	C415.282410,1375.977295 412.330475,1374.645630 409.183289,1373.827393 
	C407.100281,1373.285767 405.118500,1372.366211 403.051697,1371.749023 
	C396.919739,1369.918335 393.647644,1366.301392 393.596832,1361.179199 
	C393.540161,1355.461304 397.331726,1350.224731 403.489624,1349.066406 
	C409.187103,1347.994751 414.968689,1348.090698 420.426147,1351.183960 
	C423.383545,1352.860229 422.203796,1354.638916 421.521515,1356.595337 
	C420.772919,1358.741943 419.714355,1359.633179 417.028656,1358.764893 
	C413.804199,1357.722412 410.273468,1357.376831 406.861420,1357.292236 
	C405.554260,1357.260010 403.100677,1358.807373 403.118774,1359.589966 
	C403.152863,1361.068970 404.255280,1363.216064 405.524261,1363.836426 
	C408.606628,1365.343140 412.157898,1365.865234 415.308716,1367.261597 
	C426.260773,1372.114990 427.752289,1381.437622 418.736176,1389.838501 
z"/>
<path fill="#E76D0A" opacity="1.000000" stroke="none" 
	d="
M629.371704,1372.120728 
	C629.310425,1370.348755 629.282043,1369.020264 629.189758,1367.696167 
	C628.524048,1358.145142 628.506897,1358.251099 619.250000,1357.109497 
	C617.986755,1356.953613 615.843628,1354.921143 615.995178,1354.110352 
	C616.351990,1352.201294 617.793457,1348.997803 618.893616,1348.957275 
	C629.470825,1348.566406 640.068359,1348.723145 651.095215,1348.723145 
	C651.230957,1351.584473 651.345337,1353.994385 651.499573,1357.245239 
	C648.334778,1357.245239 645.581604,1357.393188 642.851074,1357.207275 
	C639.552124,1356.982666 638.486267,1358.419189 638.534607,1361.589600 
	C638.663818,1370.059814 638.437683,1378.536621 638.637634,1387.004150 
	C638.720825,1390.526123 637.493896,1391.651123 634.031982,1391.544556 
	C630.756531,1391.443726 628.450867,1391.022339 628.725037,1386.966675 
	C629.049072,1382.173706 629.167542,1377.366943 629.371704,1372.120728 
z"/>
<path fill="#E76D0A" opacity="1.000000" stroke="none" 
	d="
M520.536011,1370.987305 
	C520.586060,1383.007446 520.586182,1383.051636 532.956177,1383.012939 
	C536.455872,1383.001953 540.170288,1382.692627 538.987610,1387.891235 
	C538.671753,1389.279663 536.681458,1391.228638 535.378601,1391.293823 
	C528.578613,1391.633667 521.752441,1391.438965 514.935303,1391.452515 
	C512.250122,1391.457886 511.111267,1390.260742 511.132263,1387.482788 
	C511.220306,1375.844360 511.264709,1364.203491 511.107269,1352.566528 
	C511.057526,1348.889648 513.037659,1348.644043 515.841125,1348.623169 
	C518.662781,1348.601929 520.702942,1348.846802 520.582581,1352.534424 
	C520.387390,1358.513916 520.533203,1364.504395 520.536011,1370.987305 
z"/>
<path fill="#E76D0A" opacity="1.000000" stroke="none" 
	d="
M673.412720,1390.545654 
	C673.166626,1376.665771 673.166626,1363.091553 673.166626,1349.547974 
	C681.080383,1347.274658 682.032227,1347.934082 682.038208,1355.624634 
	C682.045654,1365.259766 682.038269,1374.895020 682.049377,1384.530151 
	C682.058105,1392.129150 681.640625,1392.449829 673.412720,1390.545654 
z"/>
<path fill="#F97004" opacity="1.000000" stroke="none" 
	d="
M474.515289,1204.544556 
	C474.498444,1204.552002 474.532135,1204.537109 474.515289,1204.544556 
z"/>
<path fill="#0F0F0F" opacity="1.000000" stroke="none" 
	d="
M429.557190,1299.598877 
	C422.891296,1305.134644 415.685638,1307.861694 407.247467,1307.375610 
	C402.110565,1307.079712 396.942780,1307.320923 391.199036,1307.320923 
	C391.087952,1305.420776 390.915497,1303.828003 390.914001,1302.234863 
	C390.898651,1285.904175 391.042938,1269.571899 390.831818,1253.244019 
	C390.771912,1248.610596 391.988037,1246.440552 396.955963,1247.110840 
	C405.280487,1248.234131 414.214020,1247.577637 421.862366,1250.429443 
	C439.689789,1257.076660 448.710724,1282.324341 429.557190,1299.598877 
z"/>
<path fill="#0F0F0F" opacity="1.000000" stroke="none" 
	d="
M733.982666,1381.248047 
	C726.227844,1384.937622 719.805725,1383.249878 716.497314,1376.993896 
	C713.138977,1370.643433 715.580505,1361.669434 721.657654,1358.026978 
	C728.531494,1353.906738 737.928772,1359.491943 738.612976,1368.189819 
	C738.993591,1373.027588 737.897522,1377.458130 733.982666,1381.248047 
z"/>
<path fill="#0F0F0F" opacity="1.000000" stroke="none" 
	d="
M478.116211,1371.788208 
	C477.438049,1379.822388 473.471222,1383.507812 466.275696,1383.202148 
	C459.505371,1382.914551 455.211212,1378.370483 455.015686,1371.286865 
	C454.756165,1361.882935 459.946869,1356.417114 468.542206,1357.043457 
	C474.605530,1357.485474 478.115662,1362.710815 478.116211,1371.788208 
z"/>
</svg>